<svg xmlns="http://www.w3.org/2000/svg" width="348" height="163"><style> .TimelineBlock{fill:rgb(195,130,255);}.TopConduitDuct{fill:#ccc;}.ConduitDuct{fill:#aaa;}.ComponentBlock{fill:rgb(134,146,255);}.ModelBlock{fill:#baffbd;}text{font-family:sans-serif;font-size:16px;}.model{rx:1;fill:#eee;stroke:#000;stroke-width:2;}.component{rx:5;fill:#fff;stroke:#000;stroke-width:2;}.ComponentBlock_group text{text-anchor:middle;dominant-baseline:middle;}#port-f_init,#port-o_f,#port-o_i,#port-s{stroke:black;stroke-width:2;}#port-f_init,#port-s{fill:white;}#port-o_f,#port-o_i{fill:black;}.conduit{fill:none;stroke:#000;stroke-linecap:square;stroke-width:2;}</style><defs><path id="port-f_init" d="M 1 0 L 4 -3 L 7 0 L 4 3 Z "/><path id="port-o_f" d="M -1 0 L -4 -3 L -7 0 L -4 3 Z "/><circle id="port-o_i" cy="-3.5" r="2.5"/><circle id="port-s" cy="-3.5" r="2.5"/></defs><g class="ModelBlock_group"><rect class="model" id="model-macro_micro" x="11.0" y="11.0" width="326" height="141"><title>Model: macro_micro</title></rect><g transform="translate(20 20)" class="TimelineBlock_group"><g class="ConduitDuct_group"/><g class="ComponentBlock_group"><rect class="component" id="component-macro" x="8.0" y="1.0" width="292" height="48"/><text x="154.0" y="25.0">macro</text><use href="#port-o_i" x="12.0" y="57"><title>output3</title></use><use href="#port-o_i" x="22.0" y="57"><title>output</title></use><use href="#port-o_i" x="32.0" y="57"><title>output2</title></use><use href="#port-s" x="286.0" y="57"><title>input1</title></use><use href="#port-s" x="296.0" y="57"><title>input2</title></use></g><g class="ConduitDuct_group"/><g transform="translate(7 57)" class="TimelineBlock_group"><g class="ConduitDuct_group"/><g class="ComponentBlock_group"><rect class="component" id="component-micro1" x="38.0" y="17.0" width="98" height="48"/><text x="87.0" y="41.0">micro1</text><use href="#port-f_init" x="30" y="36.0"><title>input</title></use><use href="#port-f_init" x="30" y="46.0"><title>input2</title></use><use href="#port-o_f" x="144" y="41.0"><title>output</title></use></g><g class="ConduitDuct_group"/><g class="ComponentBlock_group"><rect class="component" id="component-micro2" x="168.0" y="17.0" width="98" height="48"/><text x="217.0" y="41.0">micro2</text><use href="#port-f_init" x="160" y="31.0"><title>input3</title></use><use href="#port-f_init" x="160" y="41.0"><title>input2</title></use><use href="#port-f_init" x="160" y="51.0"><title>input1</title></use><use href="#port-o_f" x="274" y="41.0"><title>output</title></use></g><g class="ConduitDuct_group"/><g class="TopConduitDuct_group"><path class="conduit" d="M 25.0 0 H 25.0 V 2.0 H 158.0 V 31.0 H 160"/><path class="conduit" d="M 15.0 0 H 15.0 V 36.0 H 30"/><path class="conduit" d="M 15.0 0 H 15.0 V 6.0 H 154.0 V 41.0 H 160"/><path class="conduit" d="M 5.0 0 H 5.0 V 46.0 H 30"/><path class="conduit" d="M 144 41.0 H 150.0 V 51.0 H 160"/><path class="conduit" d="M 144 41.0 H 146.0 V 10.0 H 279.0 V 0 H 279.0"/><path class="conduit" d="M 274 41.0 H 289.0 V 0 H 289.0"/></g></g><g class="TopConduitDuct_group"/></g></g></svg>