<svg xmlns="http://www.w3.org/2000/svg" width="322" height="90"><style> .TimelineBlock{fill:rgb(195,130,255);}.TopConduitDuct{fill:#ccc;}.ConduitDuct{fill:#aaa;}.ComponentBlock{fill:rgb(134,146,255);}.ModelBlock{fill:#baffbd;}text{font-family:sans-serif;font-size:16px;}.model{rx:1;fill:#eee;stroke:#000;stroke-width:2;}.component{rx:5;fill:#fff;stroke:#000;stroke-width:2;}.ComponentBlock_group text{text-anchor:middle;dominant-baseline:middle;}#port-f_init,#port-o_f,#port-o_i,#port-s{stroke:black;stroke-width:2;}#port-f_init,#port-s{fill:white;}#port-o_f,#port-o_i{fill:black;}.conduit{fill:none;stroke:#000;stroke-linecap:square;stroke-width:2;}</style><defs><path id="port-f_init" d="M 1 0 L 4 -3 L 7 0 L 4 3 Z "/><path id="port-o_f" d="M -1 0 L -4 -3 L -7 0 L -4 3 Z "/><circle id="port-o_i" cy="-3.5" r="2.5"/><circle id="port-s" cy="-3.5" r="2.5"/></defs><g class="ModelBlock_group"><rect class="model" id="model-dispatch" x="11.0" y="11.0" width="300" height="68"><title>Model: dispatch</title></rect><use href="#port-f_init" x="3" y="25.0"><title>input1</title></use><path class="conduit" d="M 10 25.0 h 10"/><use href="#port-f_init" x="3" y="35.0"><title>input2</title></use><path class="conduit" d="M 10 35.0 h 10"/><use href="#port-f_init" x="3" y="45.0"><title>input3</title></use><path class="conduit" d="M 10 45.0 h 10"/><use href="#port-f_init" x="3" y="55.0"><title>input4</title></use><path class="conduit" d="M 10 55.0 h 10"/><use href="#port-o_f" x="319" y="25.0"><title>output</title></use><path class="conduit" d="M 312 25.0 h -10"/><g transform="translate(20 20)" class="TimelineBlock_group"><g class="ConduitDuct_group"/><g class="ComponentBlock_group"><rect class="component" id="component-first" x="48.0" y="1.0" width="98" height="48"/><text x="97.0" y="25.0">first</text><use href="#port-f_init" x="40" y="10.0"><title>input1</title></use><use href="#port-f_init" x="40" y="20.0"><title>input2</title></use><use href="#port-f_init" x="40" y="30.0"><title>input3</title></use><use href="#port-f_init" x="40" y="40.0"><title>input4</title></use><use href="#port-o_f" x="154" y="25.0"><title>output</title></use></g><g class="ConduitDuct_group"/><g class="ComponentBlock_group"><rect class="component" id="component-second" x="166.0" y="1.0" width="98" height="48"/><text x="215.0" y="25.0">second</text><use href="#port-f_init" x="158" y="25.0"><title>input</title></use><use href="#port-o_f" x="272" y="25.0"><title>output</title></use></g><g class="ConduitDuct_group"/><g class="TopConduitDuct_group"><path class="conduit" d="M 0 5.0 H 5.0 V 10.0 H 40"/><path class="conduit" d="M 0 15.0 H 15.0 V 20.0 H 40"/><path class="conduit" d="M 0 25.0 H 25.0 V 30.0 H 40"/><path class="conduit" d="M 0 35.0 H 35.0 V 40.0 H 40"/><path class="conduit" d="M 154 25.0 H 156.0 V 25.0 H 158"/><path class="conduit" d="M 272 25.0 H 277.0 V 5.0 H 282"/></g></g></g></svg>